<svg width="787" height="201" viewBox="0 0 787 201" fill="none" xmlns="http://www.w3.org/2000/svg">
<path d="M288.2 21.2115H303.798V92.1202H288.2V21.2115Z" fill="white"/>
<path d="M364.282 39.6397C362.748 37.7702 360.849 36.3347 358.582 35.3331C356.382 34.3316 353.816 33.8308 350.883 33.8308C347.95 33.8308 345.217 34.3984 342.684 35.5334C340.217 36.6685 338.051 38.271 336.185 40.3408C334.385 42.3439 332.952 44.7476 331.885 47.5519C330.885 50.3562 330.385 53.3942 330.385 56.6658C330.385 60.0043 330.885 63.0757 331.885 65.88C332.952 68.6175 334.385 71.0212 336.185 73.091C337.984 75.0941 340.084 76.6632 342.484 77.7983C344.95 78.9333 347.583 79.5009 350.383 79.5009C353.583 79.5009 356.416 78.8332 358.882 77.4978C361.349 76.1624 363.382 74.2929 364.982 71.8892L377.98 81.6041C374.981 85.8106 371.181 88.9153 366.581 90.9184C361.982 92.9215 357.249 93.923 352.383 93.923C346.85 93.923 341.751 93.055 337.084 91.319C332.418 89.583 328.385 87.1126 324.986 83.9076C321.586 80.636 318.92 76.6966 316.987 72.0895C315.12 67.4824 314.187 62.3412 314.187 56.6658C314.187 50.9905 315.12 45.8493 316.987 41.2422C318.92 36.6351 321.586 32.7291 324.986 29.5242C328.385 26.2525 332.418 23.7487 337.084 22.0127C341.751 20.2767 346.85 19.4087 352.383 19.4087C354.383 19.4087 356.449 19.609 358.582 20.0096C360.782 20.3435 362.915 20.911 364.982 21.7122C367.115 22.5135 369.148 23.5818 371.081 24.9171C373.014 26.2525 374.747 27.8884 376.28 29.8247L364.282 39.6397Z" fill="white"/>
<path d="M382.637 56.6658C382.637 50.9905 383.57 45.8493 385.436 41.2422C387.37 36.6351 390.036 32.7291 393.436 29.5242C396.835 26.2525 400.868 23.7487 405.534 22.0127C410.201 20.2767 415.3 19.4087 420.833 19.4087C426.365 19.4087 431.465 20.2767 436.131 22.0127C440.797 23.7487 444.83 26.2525 448.23 29.5242C451.63 32.7291 454.263 36.6351 456.129 41.2422C458.062 45.8493 459.029 50.9905 459.029 56.6658C459.029 62.3412 458.062 67.4824 456.129 72.0895C454.263 76.6966 451.63 80.636 448.23 83.9076C444.83 87.1126 440.797 89.583 436.131 91.319C431.465 93.055 426.365 93.923 420.833 93.923C415.3 93.923 410.201 93.055 405.534 91.319C400.868 89.583 396.835 87.1126 393.436 83.9076C390.036 80.636 387.37 76.6966 385.436 72.0895C383.57 67.4824 382.637 62.3412 382.637 56.6658ZM398.835 56.6658C398.835 60.0043 399.335 63.0757 400.335 65.88C401.401 68.6175 402.901 71.0212 404.834 73.091C406.768 75.0941 409.067 76.6632 411.734 77.7983C414.467 78.9333 417.5 79.5009 420.833 79.5009C424.166 79.5009 427.165 78.9333 429.832 77.7983C432.565 76.6632 434.898 75.0941 436.831 73.091C438.764 71.0212 440.231 68.6175 441.231 65.88C442.297 63.0757 442.83 60.0043 442.83 56.6658C442.83 53.3942 442.297 50.3562 441.231 47.5519C440.231 44.7476 438.764 42.3439 436.831 40.3408C434.898 38.271 432.565 36.6685 429.832 35.5334C427.165 34.3984 424.166 33.8308 420.833 33.8308C417.5 33.8308 414.467 34.3984 411.734 35.5334C409.067 36.6685 406.768 38.271 404.834 40.3408C402.901 42.3439 401.401 44.7476 400.335 47.5519C399.335 50.3562 398.835 53.3942 398.835 56.6658Z" fill="white"/>
<path d="M469.631 21.2115H497.028C500.628 21.2115 504.027 21.5787 507.227 22.3131C510.493 22.9808 513.326 24.1493 515.726 25.8185C518.192 27.421 520.126 29.6244 521.525 32.4287C522.992 35.1662 523.725 38.6048 523.725 42.7445C523.725 47.7522 522.425 52.0254 519.826 55.5642C517.226 59.0361 513.426 61.2395 508.427 62.1743L526.425 92.1202H507.727L492.928 63.7767H485.229V92.1202H469.631V21.2115ZM485.229 50.5565H494.428C495.828 50.5565 497.295 50.5231 498.828 50.4563C500.428 50.3228 501.861 50.0223 503.127 49.5549C504.394 49.0208 505.427 48.2196 506.227 47.1512C507.094 46.0829 507.527 44.5806 507.527 42.6443C507.527 40.8416 507.16 39.406 506.427 38.3377C505.694 37.2694 504.76 36.4682 503.627 35.934C502.494 35.3331 501.194 34.9325 499.728 34.7322C498.261 34.5319 496.828 34.4317 495.428 34.4317H485.229V50.5565Z" fill="white"/>
<path d="M534.468 21.2115H560.765C564.431 21.2115 567.898 21.5453 571.164 22.213C574.43 22.8807 577.263 24.0491 579.663 25.7184C582.129 27.3208 584.063 29.5242 585.462 32.3285C586.929 35.066 587.662 38.538 587.662 42.7445C587.662 46.8842 586.996 50.3562 585.662 53.1605C584.329 55.9648 582.496 58.2015 580.163 59.8708C577.83 61.54 575.064 62.7418 571.864 63.4763C568.664 64.144 565.198 64.4778 561.465 64.4778H550.066V92.1202H534.468V21.2115ZM550.066 51.2575H560.465C561.865 51.2575 563.198 51.124 564.465 50.8569C565.798 50.5899 566.964 50.1559 567.964 49.5549C569.031 48.8872 569.864 48.0192 570.464 46.9509C571.131 45.8159 571.464 44.4137 571.464 42.7445C571.464 40.9417 571.031 39.5062 570.164 38.4379C569.364 37.3028 568.298 36.4348 566.964 35.8339C565.698 35.233 564.265 34.8657 562.665 34.7322C561.065 34.5319 559.532 34.4317 558.065 34.4317H550.066V51.2575Z" fill="white"/>
<path d="M332.495 179.929C330.095 183.001 327.062 185.371 323.396 187.04C319.73 188.71 315.93 189.544 311.997 189.544C308.264 189.544 304.731 188.943 301.398 187.741C298.132 186.54 295.266 184.837 292.799 182.634C290.399 180.363 288.5 177.659 287.1 174.521C285.7 171.383 285 167.878 285 164.005C285 160.132 285.7 156.627 287.1 153.489C288.5 150.351 290.399 147.68 292.799 145.477C295.266 143.206 298.132 141.47 301.398 140.269C304.731 139.067 308.264 138.466 311.997 138.466C315.463 138.466 318.596 139.067 321.396 140.269C324.263 141.47 326.662 143.206 328.595 145.477C330.595 147.68 332.128 150.351 333.195 153.489C334.262 156.627 334.795 160.132 334.795 164.005V168.712H299.998C300.598 171.583 301.898 173.887 303.898 175.623C305.898 177.292 308.364 178.127 311.297 178.127C313.764 178.127 315.83 177.592 317.497 176.524C319.23 175.389 320.73 173.954 321.996 172.218L332.495 179.929ZM319.796 158.496C319.863 155.959 319.03 153.789 317.297 151.987C315.563 150.184 313.33 149.282 310.597 149.282C308.931 149.282 307.464 149.549 306.198 150.084C304.931 150.618 303.831 151.319 302.898 152.187C302.032 152.988 301.332 153.956 300.798 155.091C300.332 156.16 300.065 157.295 299.998 158.496H319.796Z" fill="white"/>
<path d="M392.111 135.862C390.578 133.992 388.678 132.557 386.411 131.555C384.212 130.554 381.645 130.053 378.712 130.053C375.779 130.053 373.046 130.62 370.513 131.755C368.047 132.891 365.88 134.493 364.014 136.563C362.214 138.566 360.781 140.97 359.714 143.774C358.714 146.578 358.214 149.616 358.214 152.888C358.214 156.226 358.714 159.298 359.714 162.102C360.781 164.84 362.214 167.243 364.014 169.313C365.813 171.316 367.913 172.885 370.313 174.02C372.779 175.155 375.412 175.723 378.212 175.723C381.412 175.723 384.245 175.055 386.711 173.72C389.178 172.384 391.211 170.515 392.811 168.111L405.809 177.826C402.81 182.033 399.01 185.137 394.41 187.14C389.811 189.144 385.078 190.145 380.212 190.145C374.679 190.145 369.58 189.277 364.914 187.541C360.247 185.805 356.214 183.335 352.815 180.13C349.415 176.858 346.749 172.919 344.816 168.312C342.949 163.704 342.016 158.563 342.016 152.888C342.016 147.213 342.949 142.071 344.816 137.464C346.749 132.857 349.415 128.951 352.815 125.746C356.214 122.475 360.247 119.971 364.914 118.235C369.58 116.499 374.679 115.631 380.212 115.631C382.212 115.631 384.278 115.831 386.411 116.232C388.611 116.566 390.744 117.133 392.811 117.934C394.944 118.735 396.977 119.804 398.91 121.139C400.843 122.475 402.576 124.11 404.109 126.047L392.111 135.862Z" fill="white"/>
<path d="M410.566 164.005C410.566 160.132 411.266 156.627 412.666 153.489C414.065 150.351 415.965 147.68 418.365 145.477C420.831 143.206 423.698 141.47 426.964 140.269C430.297 139.067 433.83 138.466 437.563 138.466C441.296 138.466 444.796 139.067 448.062 140.269C451.395 141.47 454.261 143.206 456.661 145.477C459.127 147.68 461.061 150.351 462.46 153.489C463.86 156.627 464.56 160.132 464.56 164.005C464.56 167.878 463.86 171.383 462.46 174.521C461.061 177.659 459.127 180.363 456.661 182.634C454.261 184.837 451.395 186.54 448.062 187.741C444.796 188.943 441.296 189.544 437.563 189.544C433.83 189.544 430.297 188.943 426.964 187.741C423.698 186.54 420.831 184.837 418.365 182.634C415.965 180.363 414.065 177.659 412.666 174.521C411.266 171.383 410.566 167.878 410.566 164.005ZM425.564 164.005C425.564 167.677 426.597 170.648 428.664 172.919C430.797 175.189 433.763 176.324 437.563 176.324C441.363 176.324 444.296 175.189 446.362 172.919C448.495 170.648 449.562 167.677 449.562 164.005C449.562 160.333 448.495 157.361 446.362 155.091C444.296 152.821 441.363 151.686 437.563 151.686C433.763 151.686 430.797 152.821 428.664 155.091C426.597 157.361 425.564 160.333 425.564 164.005Z" fill="white"/>
<path d="M473.394 139.668H487.793V146.278H487.993C488.459 145.343 489.126 144.408 489.993 143.473C490.859 142.539 491.892 141.704 493.092 140.97C494.292 140.235 495.659 139.634 497.192 139.167C498.725 138.699 500.392 138.466 502.191 138.466C505.991 138.466 509.057 139.067 511.39 140.269C513.724 141.404 515.523 143.006 516.79 145.076C518.123 147.146 519.023 149.583 519.49 152.387C519.956 155.191 520.189 158.229 520.189 161.501V188.342H505.191V164.506C505.191 163.104 505.124 161.668 504.991 160.199C504.924 158.663 504.624 157.261 504.091 155.993C503.625 154.724 502.858 153.689 501.791 152.888C500.792 152.087 499.325 151.686 497.392 151.686C495.459 151.686 493.892 152.053 492.692 152.788C491.493 153.455 490.559 154.39 489.893 155.592C489.293 156.727 488.893 158.029 488.693 159.498C488.493 160.967 488.393 162.503 488.393 164.105V188.342H473.394V139.668Z" fill="white"/>
<path d="M563.907 151.686H550.708V167.911C550.708 169.246 550.775 170.482 550.908 171.617C551.041 172.685 551.341 173.62 551.808 174.421C552.275 175.222 552.975 175.856 553.908 176.324C554.908 176.724 556.208 176.925 557.807 176.925C558.607 176.925 559.641 176.858 560.907 176.724C562.24 176.524 563.24 176.124 563.907 175.523V188.042C562.24 188.643 560.507 189.043 558.707 189.244C556.908 189.444 555.141 189.544 553.408 189.544C550.875 189.544 548.542 189.277 546.409 188.743C544.276 188.209 542.409 187.374 540.809 186.239C539.209 185.037 537.943 183.502 537.01 181.632C536.143 179.762 535.71 177.492 535.71 174.822V151.686H526.111V139.668H535.71V125.245H550.708V139.668H563.907V151.686Z" fill="white"/>
<path d="M571.529 139.668H586.527V147.48H586.727C588.327 144.475 590.227 142.238 592.427 140.769C594.626 139.234 597.393 138.466 600.726 138.466C601.592 138.466 602.459 138.499 603.325 138.566C604.192 138.633 604.992 138.766 605.725 138.967V152.688C604.659 152.354 603.592 152.12 602.525 151.987C601.526 151.786 600.459 151.686 599.326 151.686C596.459 151.686 594.193 152.087 592.526 152.888C590.86 153.689 589.56 154.824 588.627 156.293C587.76 157.695 587.194 159.398 586.927 161.401C586.66 163.404 586.527 165.607 586.527 168.011V188.342H571.529V139.668Z" fill="white"/>
<path d="M642.744 182.233H642.544C640.877 184.837 638.644 186.706 635.845 187.842C633.112 188.977 630.212 189.544 627.146 189.544C624.879 189.544 622.679 189.21 620.546 188.543C618.48 187.942 616.647 187.007 615.047 185.738C613.447 184.47 612.18 182.901 611.247 181.031C610.314 179.162 609.847 176.992 609.847 174.521C609.847 171.717 610.347 169.346 611.347 167.41C612.414 165.474 613.814 163.871 615.547 162.603C617.347 161.334 619.38 160.366 621.646 159.698C623.913 158.964 626.246 158.43 628.645 158.096C631.112 157.762 633.545 157.562 635.945 157.495C638.411 157.428 640.677 157.395 642.744 157.395C642.744 154.724 641.777 152.621 639.844 151.085C637.978 149.483 635.745 148.681 633.145 148.681C630.678 148.681 628.412 149.216 626.346 150.284C624.346 151.285 622.546 152.688 620.946 154.49L612.947 146.278C615.747 143.674 619.013 141.737 622.746 140.469C626.479 139.133 630.345 138.466 634.345 138.466C638.744 138.466 642.344 139.033 645.144 140.168C648.01 141.237 650.276 142.839 651.943 144.976C653.676 147.112 654.876 149.75 655.543 152.888C656.209 155.959 656.542 159.531 656.542 163.604V188.342H642.744V182.233ZM639.044 167.01C637.911 167.01 636.478 167.076 634.745 167.21C633.078 167.277 631.445 167.544 629.845 168.011C628.312 168.478 626.979 169.18 625.846 170.114C624.779 171.049 624.246 172.351 624.246 174.02C624.246 175.823 625.012 177.158 626.546 178.026C628.079 178.894 629.679 179.328 631.345 179.328C632.812 179.328 634.211 179.128 635.545 178.728C636.945 178.327 638.178 177.759 639.244 177.025C640.311 176.29 641.144 175.356 641.744 174.221C642.411 173.086 642.744 171.75 642.744 170.214V167.01H639.044Z" fill="white"/>
<path d="M698.849 155.392C698.116 154.323 697.083 153.455 695.749 152.788C694.416 152.053 692.983 151.686 691.45 151.686C687.65 151.686 684.684 152.821 682.551 155.091C680.484 157.361 679.451 160.333 679.451 164.005C679.451 167.677 680.484 170.648 682.551 172.919C684.684 175.189 687.65 176.324 691.45 176.324C693.116 176.324 694.549 175.957 695.749 175.222C696.949 174.488 697.982 173.62 698.849 172.618L708.748 183.034C706.415 185.438 703.648 187.14 700.449 188.142C697.316 189.077 694.316 189.544 691.45 189.544C687.717 189.544 684.184 188.943 680.851 187.741C677.585 186.54 674.718 184.837 672.252 182.634C669.852 180.363 667.952 177.659 666.552 174.521C665.152 171.383 664.453 167.878 664.453 164.005C664.453 160.132 665.152 156.627 666.552 153.489C667.952 150.351 669.852 147.68 672.252 145.477C674.718 143.206 677.585 141.47 680.851 140.269C684.184 139.067 687.717 138.466 691.45 138.466C694.316 138.466 697.316 138.967 700.449 139.968C703.648 140.903 706.415 142.572 708.748 144.976L698.849 155.392Z" fill="white"/>
<path d="M747.286 151.686H734.087V167.911C734.087 169.246 734.154 170.482 734.287 171.617C734.421 172.685 734.721 173.62 735.187 174.421C735.654 175.222 736.354 175.856 737.287 176.324C738.287 176.724 739.587 176.925 741.187 176.925C741.987 176.925 743.02 176.858 744.286 176.724C745.62 176.524 746.62 176.124 747.286 175.523V188.042C745.62 188.643 743.886 189.043 742.087 189.244C740.287 189.444 738.52 189.544 736.787 189.544C734.254 189.544 731.921 189.277 729.788 188.743C727.655 188.209 725.788 187.374 724.189 186.239C722.589 185.037 721.322 183.502 720.389 181.632C719.522 179.762 719.089 177.492 719.089 174.822V151.686H709.49V139.668H719.089V125.245H734.087V139.668H747.286V151.686Z" fill="white"/>
<g clip-path="url(#clip0_5074_9421)">
<path opacity="0.4" d="M197.147 83.4594V90.6102H226.603C227.385 91.9 228.568 92.8988 229.972 93.4541C231.376 94.0094 232.923 94.0906 234.377 93.6853C235.832 93.28 237.113 92.4105 238.027 91.2097C238.94 90.0088 239.434 88.5425 239.434 87.0348C239.434 85.5271 238.94 84.0608 238.027 82.8599C237.113 81.659 235.832 80.7895 234.377 80.3843C232.923 79.979 231.376 80.0602 229.972 80.6154C228.568 81.1707 227.385 82.1696 226.603 83.4594H197.147Z" fill="url(#paint0_linear_5074_9421)"/>
<path opacity="0.4" d="M240.951 101.346C239.764 101.345 238.596 101.65 237.561 102.233C236.527 102.816 235.661 103.656 235.048 104.672H221.015L219.978 106.458L213.537 122.136H197.147V129.286H217.64L218.676 127.5L225.117 111.823H235.041C235.667 112.855 236.552 113.706 237.609 114.291C238.667 114.875 239.859 115.173 241.067 115.154C242.276 115.135 243.458 114.801 244.496 114.183C245.535 113.566 246.393 112.688 246.986 111.636C247.578 110.585 247.885 109.396 247.874 108.19C247.863 106.983 247.536 105.8 246.925 104.759C246.314 103.718 245.44 102.855 244.391 102.256C243.342 101.657 242.154 101.343 240.945 101.346H240.951Z" fill="url(#paint1_linear_5074_9421)"/>
<path opacity="0.4" d="M205.535 97.3444H201.502V104.495H205.535C206.317 105.787 207.501 106.787 208.906 107.344C210.312 107.9 211.861 107.982 213.317 107.577C214.773 107.172 216.056 106.301 216.971 105.099C217.885 103.897 218.38 102.429 218.38 100.92C218.38 99.4104 217.885 97.9425 216.971 96.7404C216.056 95.5383 214.773 94.668 213.317 94.2627C211.861 93.8574 210.312 93.9392 208.906 94.4957C207.501 95.0522 206.317 96.0527 205.535 97.3444Z" fill="url(#paint2_linear_5074_9421)"/>
<path opacity="0.4" d="M237.311 136.279C236.122 136.279 234.954 136.586 233.918 137.168C232.883 137.751 232.016 138.59 231.4 139.605H197.147V146.756H231.4C232.026 147.786 232.911 148.634 233.967 149.216C235.023 149.799 236.213 150.095 237.419 150.075C238.625 150.056 239.805 149.721 240.841 149.105C241.878 148.489 242.735 147.613 243.327 146.563C243.919 145.514 244.225 144.328 244.216 143.124C244.206 141.919 243.881 140.738 243.273 139.698C242.664 138.658 241.794 137.796 240.748 137.196C239.702 136.596 238.517 136.28 237.311 136.279Z" fill="url(#paint3_linear_5074_9421)"/>
<g opacity="0.5">
<path d="M57.6624 129.04L58.6927 130.826H92.7122V123.682H62.8077L53.7434 108.004L52.7068 106.218H38.6743C37.8925 104.93 36.7101 103.933 35.3076 103.379C33.9051 102.825 32.3595 102.745 30.9069 103.15C29.4542 103.555 28.1742 104.424 27.2624 105.623C26.3506 106.823 25.857 108.288 25.857 109.794C25.857 111.3 26.3506 112.764 27.2624 113.964C28.1742 115.164 29.4542 116.032 30.9069 116.438C32.3595 116.843 33.9051 116.762 35.3076 116.208C36.7101 115.654 37.8925 114.657 38.6743 113.369H48.5918L57.6624 129.04Z" fill="#440A16"/>
<path d="M63.7811 96.9216C62.5733 96.921 61.3864 97.2362 60.3386 97.8359C59.2907 98.4356 58.4184 99.2989 57.8085 100.34C57.1987 101.381 56.8725 102.563 56.8624 103.769C56.8524 104.975 57.1589 106.162 57.7513 107.213C58.3438 108.264 59.2016 109.142 60.2393 109.759C61.2771 110.376 62.4586 110.711 63.6662 110.73C64.8739 110.749 66.0655 110.453 67.1226 109.869C68.1797 109.286 69.0652 108.436 69.6912 107.405H76.796V100.254H69.6912C69.0775 99.2369 68.2108 98.3955 67.1752 97.8116C66.1396 97.2277 64.9704 96.9211 63.7811 96.9216Z" fill="#440A16"/>
<path d="M92.7122 148.296V141.145H52.77C51.9881 139.856 50.8048 138.857 49.401 138.302C47.9971 137.746 46.4498 137.665 44.9954 138.07C43.541 138.476 42.2594 139.345 41.3463 140.546C40.4333 141.747 39.9391 143.213 39.9391 144.721C39.9391 146.229 40.4333 147.695 41.3463 148.896C42.2594 150.097 43.541 150.966 44.9954 151.371C46.4498 151.777 47.9971 151.695 49.401 151.14C50.8048 150.585 51.9881 149.586 52.77 148.296H84.1915V165.968H104.728V157.467H92.7185L92.7122 148.296Z" fill="#440A16"/>
<path d="M51.6575 95.6341C52.8473 95.6333 54.0167 95.3255 55.0522 94.7406C56.0877 94.1556 56.9542 93.3133 57.5676 92.2954H92.7122V85.1572H57.5676C56.9425 84.1248 56.0574 83.2739 55.0004 82.6893C53.9434 82.1048 52.7515 81.807 51.5434 81.8256C50.3353 81.8442 49.1531 82.1785 48.1147 82.7953C47.0762 83.4121 46.2178 84.2897 45.6248 85.3409C45.0318 86.3921 44.725 87.58 44.735 88.7864C44.745 89.9928 45.0714 91.1755 45.6816 92.2168C46.2919 93.258 47.1647 94.1215 48.2132 94.721C49.2617 95.3206 50.4493 95.6354 51.6575 95.6341Z" fill="#440A16"/>
<path d="M180.807 65.7875L160.22 45.2314C160.211 45.2269 160.202 45.2246 160.192 45.2246C160.182 45.2246 160.172 45.2269 160.163 45.2314H76.9667C76.031 45.233 75.1339 45.6031 74.4699 46.2613C73.806 46.9195 73.4289 47.8126 73.4206 48.7468L73.5217 177.499C73.5217 180.512 74.7205 183.402 76.8542 185.532C78.9879 187.663 81.8819 188.86 84.8995 188.86H177.015C178.345 188.851 179.618 188.32 180.559 187.381C181.5 186.442 182.032 185.17 182.04 183.842V68.7665C182.05 68.2121 181.946 67.6615 181.734 67.149C181.522 66.6364 181.207 66.173 180.807 65.7875Z" fill="#440A16"/>
</g>
<path d="M201.641 40.4978L180.662 19.5503C180.242 19.1284 179.743 18.7935 179.193 18.565C178.643 18.3364 178.053 18.2187 177.457 18.2186H89.2546C88.7502 18.2186 88.2508 18.3179 87.7848 18.5108C87.3189 18.7037 86.8957 18.9865 86.5393 19.3429C86.183 19.6993 85.9005 20.1224 85.708 20.5879C85.5156 21.0534 85.4169 21.5523 85.4178 22.0559L85.5316 172.267C85.5349 173.468 86.0141 174.618 86.8645 175.467C87.7149 176.317 88.8674 176.795 90.07 176.798H198.437C199.638 176.793 200.789 176.314 201.638 175.465C202.487 174.616 202.965 173.467 202.969 172.267V43.6976C202.979 43.1019 202.866 42.5105 202.638 41.96C202.41 41.4096 202.07 40.9119 201.641 40.4978Z" fill="url(#paint4_linear_5074_9421)"/>
<path d="M201.641 40.4978L180.662 19.5503C180.242 19.1284 179.743 18.7935 179.193 18.565C178.643 18.3364 178.053 18.2187 177.457 18.2186H89.2546C88.7502 18.2186 88.2508 18.3179 87.7848 18.5108C87.3189 18.7037 86.8957 18.9865 86.5393 19.3429C86.183 19.6993 85.9005 20.1224 85.708 20.5879C85.5156 21.0534 85.4169 21.5523 85.4178 22.0559V24.7004C85.4294 23.692 85.8388 22.7289 86.5571 22.0199C87.2754 21.311 88.2446 20.9135 89.2546 20.9135H175.852C176.451 20.9102 177.045 21.0256 177.6 21.2531C178.154 21.4806 178.658 21.8157 179.082 22.2389L200.067 43.1612C201.26 44.5851 202.237 46.1756 202.969 47.8821V43.6976C202.979 43.1019 202.866 42.5105 202.638 41.96C202.41 41.4096 202.07 40.9119 201.641 40.4978Z" fill="#ECCFDE"/>
<path d="M180.131 107.165H164.683L169 95.0723C169.237 94.4379 169.288 93.749 169.146 93.0869C169.003 92.4248 168.674 91.8172 168.197 91.3359C167.732 90.8472 167.139 90.4983 166.486 90.3288C165.832 90.1592 165.144 90.1758 164.499 90.3766L144.317 96.6122C144.733 93.2791 144.944 89.9235 144.949 86.5645V85.3527C144.949 83.4464 144.573 81.5588 143.842 79.7976C143.111 78.0364 142.04 76.4362 140.69 75.0882C139.34 73.7403 137.738 72.671 135.974 71.9415C134.21 71.212 132.32 70.8365 130.41 70.8365C128.501 70.8365 126.611 71.212 124.847 71.9415C123.083 72.671 121.48 73.7403 120.13 75.0882C118.78 76.4362 117.709 78.0364 116.979 79.7976C116.248 81.5588 115.872 83.4464 115.872 85.3527V91.4053C115.911 92.3425 116.312 93.2282 116.99 93.8775C117.668 94.5268 118.571 94.8893 119.51 94.8893C120.449 94.8893 121.352 94.5268 122.03 93.8775C122.708 93.2282 123.108 92.3425 123.148 91.4053V85.2139C123.226 83.3413 124.026 81.5713 125.381 80.274C126.735 78.9766 128.54 78.2522 130.417 78.2522C132.294 78.2522 134.098 78.9766 135.453 80.274C136.808 81.5713 137.608 83.3413 137.686 85.2139V86.5456C137.696 90.6649 137.34 94.7771 136.624 98.8339L120.297 104.003C117.604 104.873 115.257 106.574 113.593 108.86C111.929 111.146 111.034 113.9 111.037 116.727V128.049C111.027 130.839 112.122 133.519 114.085 135.505C116.047 137.49 118.717 138.619 121.51 138.646C123.348 138.678 125.161 138.217 126.76 137.312C128.359 136.406 129.685 135.088 130.6 133.496L133.128 129.501C137.57 122 140.826 113.859 142.781 105.366L142.932 104.653L159.727 99.4587L156.105 109.557C155.91 110.105 155.85 110.693 155.929 111.269C156.008 111.846 156.224 112.395 156.56 112.871C156.895 113.347 157.34 113.736 157.857 114.005C158.374 114.274 158.948 114.415 159.531 114.417H180.15C181.089 114.378 181.976 113.978 182.626 113.301C183.276 112.624 183.639 111.722 183.639 110.784C183.639 109.847 183.276 108.945 182.626 108.268C181.976 107.591 181.089 107.191 180.15 107.152L180.131 107.165ZM126.877 125.746L124.469 129.741C124.138 130.23 123.695 130.633 123.175 130.915C122.656 131.198 122.076 131.351 121.485 131.363C120.621 131.336 119.802 130.972 119.204 130.349C118.606 129.726 118.276 128.893 118.287 128.03V116.727C118.304 115.422 118.724 114.154 119.488 113.096C120.253 112.038 121.325 111.241 122.56 110.813L134.822 107.146C133.041 113.68 130.367 119.939 126.877 125.746Z" fill="url(#paint5_linear_5074_9421)"/>
<path d="M140.524 128.523C141.617 126.326 142.616 124.061 143.52 121.769H180.719C181.565 121.843 182.354 122.23 182.928 122.855C183.502 123.48 183.821 124.298 183.821 125.146C183.821 125.994 183.502 126.812 182.928 127.437C182.354 128.062 181.565 128.45 180.719 128.523H140.524Z" fill="url(#paint6_linear_5074_9421)"/>
<path d="M201.641 40.4978L180.662 19.5503C180.242 19.1284 179.743 18.7935 179.193 18.565C178.643 18.3364 178.053 18.2187 177.457 18.2186H175.877V44.8084C175.877 45.3106 176.077 45.7922 176.432 46.1473C176.788 46.5024 177.27 46.7018 177.773 46.7018H202.988V43.6976C202.995 43.1005 202.88 42.5083 202.648 41.9578C202.416 41.4072 202.074 40.9102 201.641 40.4978Z" fill="url(#paint7_linear_5074_9421)"/>
<path opacity="0.2" d="M177.754 46.6829C182.116 46.6829 202.969 46.6829 202.969 46.6829V61.9186C202.969 61.9186 201.287 55.2853 195.712 51.4606C190.769 48.0714 186.136 47.5791 177.754 46.6829Z" fill="url(#paint8_linear_5074_9421)"/>
</g>
<defs>
<linearGradient id="paint0_linear_5074_9421" x1="225.674" y1="74.2826" x2="164.097" y2="174.023" gradientUnits="userSpaceOnUse">
<stop stop-color="#FBFCFC"/>
<stop offset="0.36" stop-color="#F6EDF2"/>
<stop offset="1" stop-color="#E9C7D8"/>
</linearGradient>
<linearGradient id="paint1_linear_5074_9421" x1="237.146" y1="92.5288" x2="177.084" y2="189.818" gradientUnits="userSpaceOnUse">
<stop stop-color="#FBFCFC"/>
<stop offset="0.36" stop-color="#F6EDF2"/>
<stop offset="1" stop-color="#E9C7D8"/>
</linearGradient>
<linearGradient id="paint2_linear_5074_9421" x1="225.832" y1="74.4404" x2="168.658" y2="167.043" gradientUnits="userSpaceOnUse">
<stop stop-color="#FBFCFC"/>
<stop offset="0.36" stop-color="#F6EDF2"/>
<stop offset="1" stop-color="#E9C7D8"/>
</linearGradient>
<linearGradient id="paint3_linear_5074_9421" x1="247.399" y1="99.2316" x2="184.946" y2="200.387" gradientUnits="userSpaceOnUse">
<stop stop-color="#FBFCFC"/>
<stop offset="0.36" stop-color="#F6EDF2"/>
<stop offset="1" stop-color="#E9C7D8"/>
</linearGradient>
<linearGradient id="paint4_linear_5074_9421" x1="85.4178" y1="97.5148" x2="202.969" y2="97.5148" gradientUnits="userSpaceOnUse">
<stop stop-color="#FBFCFC"/>
<stop offset="0.36" stop-color="#F6EDF2"/>
<stop offset="1" stop-color="#E9C7D8"/>
</linearGradient>
<linearGradient id="paint5_linear_5074_9421" x1="111.011" y1="104.741" x2="183.766" y2="104.741" gradientUnits="userSpaceOnUse">
<stop stop-color="#FF2545"/>
<stop offset="1" stop-color="#D11934"/>
</linearGradient>
<linearGradient id="paint6_linear_5074_9421" x1="140.492" y1="125.146" x2="180.194" y2="125.146" gradientUnits="userSpaceOnUse">
<stop stop-color="#FF2545"/>
<stop offset="1" stop-color="#D11934"/>
</linearGradient>
<linearGradient id="paint7_linear_5074_9421" x1="153.88" y1="66.9866" x2="195.038" y2="26.8722" gradientUnits="userSpaceOnUse">
<stop stop-color="white"/>
<stop offset="0.41" stop-color="#F7A7B5"/>
<stop offset="1" stop-color="#EB2244"/>
</linearGradient>
<linearGradient id="paint8_linear_5074_9421" x1="179.467" y1="60.6879" x2="192.219" y2="53.1857" gradientUnits="userSpaceOnUse">
<stop stop-color="#FF2545"/>
<stop offset="1" stop-color="#AA1934"/>
</linearGradient>
<clipPath id="clip0_5074_9421">
<rect width="222" height="201" fill="white" transform="translate(26)"/>
</clipPath>
</defs>
</svg>
