<svg xmlns="http://www.w3.org/2000/svg" xmlns:xlink="http://www.w3.org/1999/xlink" viewBox="0 0 1409 265.69"><defs><style>.cls-1{fill:#fff;}.cls-2{fill:url(#linear-gradient);}.cls-3{fill:url(#linear-gradient-2);}</style><linearGradient id="linear-gradient" x1="1059.79" y1="720.79" x2="900.55" y2="720.79" gradientTransform="translate(1604.27 937.5) rotate(180)" gradientUnits="userSpaceOnUse"><stop offset="0" stop-color="#fff" stop-opacity="0.5"/><stop offset="1" stop-color="#fff"/></linearGradient><linearGradient id="linear-gradient-2" x1="663.09" y1="48.98" x2="503.84" y2="48.98" gradientTransform="matrix(1, 0, 0, 1, 0, 0)" xlink:href="#linear-gradient"/></defs><g id="Layer_2" data-name="Layer 2"><g id="Layer_1-2" data-name="Layer 1"><rect class="cls-1" y="0.03" width="66.42" height="265.62"/><path class="cls-1" d="M269.51,66.42A66.47,66.47,0,0,1,327,99.63h71.15a132.78,132.78,0,1,0,0,66.42H327a66.42,66.42,0,1,1-57.5-99.63Z"/><path class="cls-2" d="M722.11,189.55H604.56c-.53,0-1,0-1.57,0s-1,0-1.57,0-1-.08-1.56-.11-1.05-.07-1.57-.12-1-.12-1.57-.19-1.05-.12-1.57-.2l-1.56-.26c-.53-.09-1.05-.18-1.57-.29s-1-.22-1.57-.34l-1.56-.38-1.57-.44-1.57-.47c-.53-.17-1-.36-1.57-.54s-1-.38-1.56-.58l-1.57-.65c-.53-.23-1-.45-1.57-.69s-1.05-.52-1.57-.78-1-.52-1.56-.81-1.05-.61-1.57-.92-1-.63-1.57-1-1.05-.69-1.57-1-1-.74-1.56-1.13-1.06-.78-1.57-1.19-1-.88-1.57-1.33-1.05-.92-1.57-1.4-1-1-1.56-1.49-1-1.09-1.57-1.64-1-1.15-1.57-1.74-1-1.22-1.57-1.85a.21.21,0,0,0,0-.06q0,9.24,0,18.49c0,22.76,0,46.3-.12,69.45a4.23,4.23,0,0,0,.15,1.48c.2.46.63.73,1.57,1.05l.89.28.68.19,1.57.44,1.56.44,1.57.43,1.57.39,1.57.4,1.56.38,1.57.35,1.57.35,1.57.33,1.56.3,1.57.3,1.57.28,1.57.25,1.56.26,1.57.23,1.57.2,1.57.2,1.56.18,1.57.15,1.57.16,1.56.12,1.57.1,1.57.11,1.57.06,1.56.05,1.57.05h4.7l1.57-.05,1.57-.06,1.57-.06,1.56-.11c.53,0,1-.06,1.57-.11l1.57-.12,1.57-.17,1.56-.16,1.57-.19,1.57-.22,1.56-.22,1.57-.26,1.57-.28,1.57-.28c.52-.1,1-.22,1.56-.33l1.57-.33c.52-.12,1.05-.23,1.57-.36l1.57-.39c.52-.13,1-.25,1.56-.39l1.57-.43,1.57-.45c.52-.15,1-.29,1.57-.45s1-.34,1.56-.51l1.57-.51c.52-.18,1.05-.35,1.57-.54l1.57-.57,1.56-.57,1.57-.62,1.57-.64,1.56-.64,1.57-.7,1.57-.7,1.57-.74,1.56-.77,1.57-.76c.53-.27,1.05-.56,1.57-.84s1-.54,1.57-.83l1.56-.86,1.57-.9c.52-.31,1-.6,1.57-.9l1.57-1,1.56-1c.53-.33,1.05-.67,1.57-1l1.57-1c.52-.35,1.05-.69,1.57-1l1.56-1.11c.53-.37,1.05-.73,1.57-1.11l1.57-1.16,1.56-1.19c.53-.4,1-.79,1.57-1.2l1.57-1.26c.52-.42,1-.83,1.57-1.26l1.56-1.33,1.57-1.34L693.9,230l1.57-1.42,1.16-1.05.4-.39c.53-.49,1.05-1,1.57-1.49l1.57-1.57c.53-.54,1.05-1.08,1.57-1.63s1-1.12,1.56-1.69,1.05-1.17,1.57-1.77,1-1.21,1.57-1.83,1-1.28,1.57-1.93,1-1.35,1.56-2,1-1.4,1.57-2.11,1.05-1.47,1.57-2.22,1-1.54,1.56-2.33,1.06-1.62,1.57-2.44,1-1.71,1.57-2.58,1.05-1.8,1.57-2.72,1-1.9,1.56-2.86,1.06-2,1.57-3,1.06-2.12,1.57-3.21l.08-.17h-1.65Z"/><path class="cls-1" d="M547.13,201.64c-.14-22.52-.28-45.8-.22-68.71.05-18,7-32.83,21.24-45.19l-19.1,0c-21.61,0-43.95,0-65.94-.16h-.26c-3.53,0-4.44.72-5.57,4.2-20.31,62.71,9.08,131.65,68.35,160.38.53.26,1.09.5,1.68.74v-3.86c0-5.56,0-10.81,0-16.05Q547.24,217.32,547.13,201.64Z"/><path class="cls-3" d="M485.45,76.13H603l1.57,0,1.57,0,1.56.12c.53,0,1,.07,1.57.12s1.05.12,1.57.18l1.57.2L614,77l1.57.28,1.57.35c.52.12,1,.24,1.56.38s1.05.28,1.57.43,1,.31,1.57.48,1.05.35,1.57.54,1,.37,1.56.58,1,.43,1.57.65,1,.44,1.57.69,1,.51,1.57.78,1.05.52,1.56.8,1,.61,1.57.92,1.05.63,1.57,1,1,.7,1.57,1,1.05.75,1.56,1.14,1.06.77,1.57,1.19,1.05.88,1.57,1.33,1,.92,1.57,1.39,1,1,1.56,1.5,1,1.08,1.57,1.64,1,1.14,1.57,1.74,1.05,1.21,1.56,1.85l0,0q0-9.22,0-18.49c0-22.76,0-46.29.12-69.44a3.91,3.91,0,0,0-.16-1.48c-.19-.46-.62-.73-1.56-1.05L646,7l-.68-.19c-.52-.16-1-.3-1.57-.45l-1.56-.44-1.57-.42-1.57-.4-1.57-.39-1.56-.38c-.53-.13-1-.23-1.57-.35l-1.57-.35-1.57-.33c-.52-.11-1-.2-1.56-.3l-1.57-.3-1.57-.28-1.57-.26-1.56-.25-1.57-.23-1.57-.2-1.57-.21-1.56-.17L615.54.91,614,.76c-.52-.05-1-.08-1.56-.12L610.84.53l-1.57-.1L607.7.36l-1.56,0-1.57,0h-3.14c-.52,0-1,0-1.56,0l-1.57,0-1.57,0-1.57.07c-.52,0-1,.07-1.56.1L592,.64l-1.57.13-1.57.16c-.52.06-1,.1-1.56.17l-1.57.19-1.57.22-1.56.22L581.06,2l-1.57.28c-.52.09-1,.17-1.57.27l-1.56.34c-.53.11-1.05.21-1.57.33l-1.57.35L571.65,4l-1.56.4c-.53.13-1.05.28-1.57.43s-1,.29-1.57.45-1.05.29-1.57.45l-1.56.51c-.53.17-1.05.33-1.57.51l-1.57.53-1.57.58-1.56.57L556,9l-1.57.64-1.56.64-1.57.7-1.57.7-1.57.74-1.56.76L545,14c-.53.27-1,.56-1.57.83l-1.57.83-1.56.87-1.57.9c-.52.3-1,.59-1.57.9s-1,.65-1.57,1l-1.56,1c-.53.33-1,.67-1.57,1l-1.57,1c-.52.34-1,.68-1.57,1s-1,.74-1.56,1.11l-1.57,1.12-1.57,1.16-1.57,1.18-1.56,1.21c-.53.41-1,.84-1.57,1.26s-1,.83-1.57,1.26-1,.89-1.56,1.33-1,.89-1.57,1.34-1.05.92-1.57,1.38l-1.57,1.42-1.16,1.05-.4.38c-.53.5-1,1-1.57,1.5s-1,1-1.57,1.57-1.05,1.08-1.57,1.62-1.05,1.13-1.56,1.7-1.05,1.17-1.57,1.76-1.05,1.22-1.57,1.84-1.05,1.28-1.57,1.93-1.05,1.34-1.56,2-1.05,1.41-1.57,2.12-1.05,1.47-1.57,2.22-1.05,1.54-1.57,2.32-1,1.63-1.56,2.45-1.05,1.71-1.57,2.58-1,1.8-1.57,2.71-1.05,1.9-1.56,2.87-1.06,2-1.57,3-1.06,2.13-1.57,3.22l-.08.16h1.65Z"/><path class="cls-1" d="M661.59,13.49q-.68-.33-1.38-.63,0,15.66,0,31.31c0,28.4.09,57.77.3,86.65.14,19.19-7.23,35-21.91,46.88q11.05,0,22.08,0h17.58c15.58,0,31.39,0,47,.13,3,0,3.68-.46,4.65-3.44C750.65,111.35,721.25,42.18,661.59,13.49Z"/><path class="cls-1" d="M1049.4,190.17a33.11,33.11,0,0,1-9.07-16.91c1.13-1,2.25-2.09,3.33-3.18a99.56,99.56,0,0,0,24.87-41.41v.05c6.39-18.42,3.86-40.64,1.75-52.42-.21-1.27-.44-2.54-.7-3.8-.16-.77-.35-1.52-.52-2.28l-.17-.7-.24-1c-.08-.3-.12-.47-.12-.47v0A91.36,91.36,0,0,0,980.26,0H807.16V66.36h166a33.2,33.2,0,0,1,0,66.39l-.63,0H807.16V265.69h65.76V199.26h100.3c1.73,0,3.46,0,5.17-.13a99.67,99.67,0,0,0,78.14,66.52h16.35V199.9A33.08,33.08,0,0,1,1049.4,190.17Z"/><path class="cls-1" d="M1407.06,78.2c-.42-2.91-1-5.78-1.66-8.59-.23-1-.37-1.53-.37-1.53v.08A91.27,91.27,0,0,0,1316.75,0h-173.1V66.36H1309a33.21,33.21,0,1,1,0,66.42H1143.65V265.69h65.76V199.27h100.3A99.69,99.69,0,0,0,1405,128.63v.05a72.57,72.57,0,0,0,3-12.58l0-.18v0C1410,101.82,1408.57,87.46,1407.06,78.2Z"/></g></g></svg>